HIERARCHY
ROOT Bip001_Pelvis
{
  OFFSET 7.937 94.8971 -8.5489
  CHANNELS 6 Xposition Yposition Zposition Zrotation Xrotation Yrotation
  JOINT Bip001_Spine
  {
    OFFSET 1.44608e-005 10.4157 -0.0118244
    CHANNELS 3 Zrotation Xrotation Yrotation
    JOINT Bip001_L_Thigh
    {
      OFFSET 11.2582 -10.4157 0.0118432
      CHANNELS 3 Zrotation Xrotation Yrotation
      JOINT Bip001_L_Calf
      {
        OFFSET -0.720717 -44.8687 0.366937
        CHANNELS 3 Zrotation Xrotation Yrotation
        JOINT Bip001_L_Foot
        {
          OFFSET -0.664439 -41.3745 -3.62995
          CHANNELS 3 Zrotation Xrotation Yrotation
          JOINT Bip001_L_Toe0
          {
            OFFSET 0.0541047 -10.4146 13.4033
            CHANNELS 3 Zrotation Xrotation Yrotation
            End Site
            {
              OFFSET -1.04503e-005 0 7.70137
            }
          }
        }
      }
    }
    JOINT Bip001_R_Thigh
    {
      OFFSET -11.2582 -10.4156 0.0118122
      CHANNELS 3 Zrotation Xrotation Yrotation
      JOINT Bip001_R_Calf
      {
        OFFSET 0.72059 -44.8687 0.36676
        CHANNELS 3 Zrotation Xrotation Yrotation
        JOINT Bip001_R_Foot
        {
          OFFSET 0.664321 -41.3745 -3.62979
          CHANNELS 3 Zrotation Xrotation Yrotation
          JOINT Bip001_R_Toe0
          {
            OFFSET -0.05417 -10.4146 13.4033
            CHANNELS 3 Zrotation Xrotation Yrotation
            End Site
            {
              OFFSET -1.04873e-005 0 7.70137
            }
          }
        }
      }
    }
    JOINT Bip001_Spine1
    {
      OFFSET 1.90638e-005 14.8539 1.10727
      CHANNELS 3 Zrotation Xrotation Yrotation
      JOINT Bip001_Spine2
      {
        OFFSET 2.28934e-005 14.7848 -1.7233
        CHANNELS 3 Zrotation Xrotation Yrotation
        JOINT Bip001_Neck
        {
          OFFSET 2.24514e-005 15.6905 -0.498826
          CHANNELS 3 Zrotation Xrotation Yrotation
          JOINT Bip001_L_Clavicle
          {
            OFFSET 6.17691 -0.000591152 0.00852867
            CHANNELS 3 Zrotation Xrotation Yrotation
            JOINT Bip001_L_UpperArm
            {
              OFFSET 11.773 -0.0611878 0.00197697
              CHANNELS 3 Zrotation Xrotation Yrotation
              JOINT Bip001_L_Forearm
              {
                OFFSET 26.4515 0.0817568 -2.19579
                CHANNELS 3 Zrotation Xrotation Yrotation
                JOINT Bip001_L_Hand
                {
                  OFFSET 32.8677 0.156744 1.67112
                  CHANNELS 3 Zrotation Xrotation Yrotation
                  JOINT Bip001_L_Finger0
                  {
                    OFFSET 6.16268 -2.25226 6.01674
                    CHANNELS 3 Zrotation Xrotation Yrotation
                    End Site
                    {
                      OFFSET 4.30499 -1.46662 0.618148
                    }
                  }
                  JOINT Bip001_L_Finger1
                  {
                    OFFSET 11.2957 -0.718374 -0.201963
                    CHANNELS 3 Zrotation Xrotation Yrotation
                    End Site
                    {
                      OFFSET 6.31952 -0.405163 -0.0802303
                    }
                  }
                }
              }
            }
          }
          JOINT Bip001_R_Clavicle
          {
            OFFSET -6.17691 -0.000574027 0.00851165
            CHANNELS 3 Zrotation Xrotation Yrotation
            JOINT Bip001_R_UpperArm
            {
              OFFSET -11.773 -0.0611516 0.00194365
              CHANNELS 3 Zrotation Xrotation Yrotation
              JOINT Bip001_R_Forearm
              {
                OFFSET -26.4514 0.0822334 -2.19736
                CHANNELS 3 Zrotation Xrotation Yrotation
                JOINT Bip001_R_Hand
                {
                  OFFSET -32.8677 0.156817 1.67144
                  CHANNELS 3 Zrotation Xrotation Yrotation
                  JOINT Bip001_R_Finger0
                  {
                    OFFSET -6.1627 -2.25224 6.0167
                    CHANNELS 3 Zrotation Xrotation Yrotation
                    End Site
                    {
                      OFFSET -4.30499 -1.46662 0.618134
                    }
                  }
                  JOINT Bip001_R_Finger1
                  {
                    OFFSET -11.2958 -0.718344 -0.201994
                    CHANNELS 3 Zrotation Xrotation Yrotation
                    End Site
                    {
                      OFFSET -6.31952 -0.405146 -0.0802475
                    }
                  }
                }
              }
            }
          }
          JOINT Bip001_Head
          {
            OFFSET 1.11782e-005 11.4912 2.09908
            CHANNELS 3 Zrotation Xrotation Yrotation
            End Site
            {
              OFFSET 2.95144e-005 21.2823 -2.83069e-005
            }
          }
        }
      }
    }
  }
}
MOTION
Frames:	5
Frame Time:	0.04
6.13595 95.6074 -8.13199 -1.1291 -0.307875 9.47537 -0.388421 0.503643 2.68077 7.05706 -10.5034 4.14074 -0.785165 15.2791 -4.47847 -3.52961 -4.77832 -2.35556 0.553331 -9.97285 -0.182783 -5.28144 -3.06145 -3.53835 0.697273 12.5789 -0.544056 -0.844679 -7.81652 -14.5141 -0.221285 -11.5008 -0.162409 -0.853414 0.987312 5.36461 -0.854694 0.987315 5.36461 -4.79837 -3.1396 -2.99385 -28.297 8.46738 -10.1277 -46.2088 38.2527 7.3642 12.2879 3.67684 -23.8418 -5.76703 -0.513543 0.215832 0 9.54166e-015 -0 3.18055e-015 3.18056e-015 -3.18055e-015 -1.53615 4.11096 33.2244 -4.4717 -7.02058 69.9847 -29.9721 21.4858 21.1971 -33.2918 8.50138 -8.15275 2.38542e-015 -3.18055e-015 1.59028e-015 3.18055e-015 -6.36111e-015 5.56597e-015 2.59095 2.2612 -4.81325 
6.13767 95.6195 -8.08399 -1.08395 -0.576991 9.16706 -0.369574 0.544035 2.58268 7.08641 -10.1081 4.47172 -0.734208 15.18 -4.43343 -3.58147 -4.80433 -2.36023 0.552326 -9.96643 -0.181193 -5.293 -2.85247 -3.60818 0.643945 12.5335 -0.311962 -0.870669 -7.75954 -14.2801 -0.179827 -11.5165 -0.126953 -0.815338 1.07402 5.16901 -0.814946 1.07402 5.16902 -5.14669 -2.93111 -2.78372 -27.9114 8.25952 -10.0327 -46.2422 37.9354 7.07194 12.5432 4.34045 -23.6628 -5.88121 -0.48227 0.143047 3.18055e-015 6.36111e-015 -1.59028e-015 1.59028e-015 6.36111e-015 -0 -1.01781 3.99573 33.4995 -1.06124 -6.43718 69.484 -31.4121 20.2248 24.1715 -31.9294 9.32807 -9.10305 4.77083e-015 0 6.75868e-015 3.18055e-015 3.18056e-015 9.14409e-015 2.86555 2.18903 -4.78473 
6.10449 95.6345 -8.12709 -1.22442 -0.577335 8.76086 -0.327903 0.531963 2.659 7.22225 -10.1141 4.01362 -0.871483 15.2601 -3.81013 -3.60875 -4.88142 -2.2073 0.545026 -9.9695 -0.157442 -5.26168 -2.87698 -3.38473 0.826674 12.3203 -0.486784 -0.930659 -7.55753 -14.0934 -0.192514 -11.5314 -0.0529306 -0.735133 1.0467 5.32062 -0.735133 1.04676 5.32063 -4.81801 -2.91125 -3.10895 -28.2218 8.24001 -10.2077 -46.338 38.2808 6.99832 12.4356 3.93474 -23.6271 -5.74524 -0.468733 0.269683 4.77083e-015 -9.54166e-015 1.59028e-015 3.18055e-015 -9.54167e-015 3.18055e-015 -0.175208 4.36711 33.1507 0.34755 -5.86392 68.5329 -34.8141 21.9239 28.4021 -33.5334 9.28028 -8.31014 7.95139e-016 -3.18055e-015 -8.34895e-015 3.18055e-015 -3.18056e-015 -7.95139e-016 2.59958 2.14726 -4.94214 
6.11849 95.6186 -8.17876 -1.20713 -0.668729 8.31172 -0.28913 0.565869 2.71236 7.16934 -10.048 3.62952 -0.94276 15.3675 -3.27871 -3.63803 -4.99061 -1.99418 0.548263 -9.97293 -0.12726 -5.30051 -3.02551 -3.74291 0.612037 12.5214 0.111987 -0.806982 -7.60895 -13.8791 -0.248755 -11.5147 -0.0738284 -0.665563 1.11597 5.4273 -0.66538 1.11599 5.42714 -4.41907 -3.44925 -3.46801 -28.7585 8.67167 -10.03 -46.4477 38.3491 6.99493 12.4834 3.70397 -23.9038 -5.73573 -0.522567 0.207593 4.77083e-015 -3.18055e-015 -1.59028e-015 3.18055e-015 -3.18056e-015 -3.18055e-015 1.27026 5.51826 32.3582 -1.00804 -3.50965 66.1763 -41.0903 20.3422 34.9986 -34.4736 9.36828 -7.41536 -1.04362e-015 0 -6.24929e-015 -5.96354e-016 0 -3.01904e-015 1.93499 2.27277 -5.00003 
6.14295 95.6212 -8.23248 -1.15761 -0.870429 7.87076 -0.261644 0.597182 2.5647 7.19453 -9.72727 6.62534 -0.225498 15.3425 -4.95883 -3.73557 -4.95396 -2.80996 0.539533 -9.97342 -0.166132 -5.42061 -3.01984 -3.39162 0.698783 12.5961 0.113755 -0.718888 -7.59537 -13.674 -0.338532 -11.5071 -0.0210551 -0.620504 1.18048 5.13107 -0.620427 1.18048 5.1311 -4.35105 -3.50229 -3.28115 -28.6766 8.72497 -10.007 -46.8998 38.0199 7.4606 12.7228 3.71859 -24.6377 -5.46528 -0.469704 0.160172 -1.59028e-015 6.36111e-015 1.59028e-015 1.59028e-015 3.18056e-015 -0 3.98674 6.55689 32.0764 -0.887495 -1.40506 62.9249 -47.6644 17.5613 44.2461 -33.5775 9.54175 -7.11694 -3.57812e-015 -3.18055e-015 -7.15625e-015 -2.78299e-015 0 -3.77691e-015 1.83249 2.0322 -4.77105 
